<mxfile host="app.diagrams.net" modified="2022-12-14T13:09:59.906Z" agent="5.0 (X11)" etag="uDl4s4OUpdUkWRVNq3Cu" version="20.6.2" type="github">
  <diagram id="WWY81_JtuqOu2J2RoEmf" name="Page-1">
    <mxGraphModel dx="1016" dy="537" grid="1" gridSize="10" guides="1" tooltips="1" connect="1" arrows="1" fold="1" page="1" pageScale="1" pageWidth="850" pageHeight="1100" math="0" shadow="0">
      <root>
        <mxCell id="0" />
        <mxCell id="1" parent="0" />
        <mxCell id="IWE4IvIM3m5MT6L9Yo8g-1" value="&lt;h2&gt;&lt;font style=&quot;font-size: 14px;&quot; face=&quot;Verdana&quot;&gt;forest fire&lt;/font&gt;&lt;/h2&gt;" style="rounded=0;whiteSpace=wrap;html=1;fillColor=#dae8fc;strokeColor=#6c8ebf;" parent="1" vertex="1">
          <mxGeometry x="560" y="120" width="120" height="80" as="geometry" />
        </mxCell>
        <mxCell id="IWE4IvIM3m5MT6L9Yo8g-2" value="&lt;font face=&quot;Verdana&quot; style=&quot;font-size: 14px;&quot;&gt;&lt;b&gt;municipality&lt;/b&gt;&lt;/font&gt;" style="rounded=0;whiteSpace=wrap;html=1;fillColor=#dae8fc;strokeColor=#6c8ebf;" parent="1" vertex="1">
          <mxGeometry x="120" y="120" width="120" height="80" as="geometry" />
        </mxCell>
        <mxCell id="IWE4IvIM3m5MT6L9Yo8g-3" value="&lt;b&gt;&lt;font face=&quot;Verdana&quot;&gt;&lt;font style=&quot;font-size: 14px;&quot;&gt;weather &lt;/font&gt;&lt;font style=&quot;font-size: 14px;&quot;&gt;station&lt;/font&gt;&lt;/font&gt;&lt;/b&gt;" style="rounded=0;whiteSpace=wrap;html=1;fillColor=#dae8fc;strokeColor=#6c8ebf;" parent="1" vertex="1">
          <mxGeometry x="120" y="400" width="120" height="80" as="geometry" />
        </mxCell>
        <mxCell id="IWE4IvIM3m5MT6L9Yo8g-4" value="&lt;h2&gt;&lt;font face=&quot;Verdana&quot; style=&quot;font-size: 14px;&quot;&gt;HAPPENS&lt;/font&gt;&lt;/h2&gt;" style="rhombus;whiteSpace=wrap;html=1;fillColor=#f8cecc;strokeColor=#b85450;" parent="1" vertex="1">
          <mxGeometry x="360" y="120" width="80" height="80" as="geometry" />
        </mxCell>
        <mxCell id="IWE4IvIM3m5MT6L9Yo8g-6" value="&lt;h2&gt;&lt;font style=&quot;font-size: 14px;&quot; face=&quot;Verdana&quot;&gt;EXCHANGES&lt;/font&gt;&lt;/h2&gt;" style="rhombus;whiteSpace=wrap;html=1;fillColor=#f8cecc;strokeColor=#b85450;" parent="1" vertex="1">
          <mxGeometry x="137.5" y="260" width="85" height="80" as="geometry" />
        </mxCell>
        <mxCell id="IWE4IvIM3m5MT6L9Yo8g-7" value="&lt;b style=&quot;&quot;&gt;&lt;font face=&quot;Verdana&quot; style=&quot;font-size: 14px;&quot;&gt;GENERATES&lt;/font&gt;&lt;/b&gt;" style="rhombus;whiteSpace=wrap;html=1;fillColor=#f8cecc;strokeColor=#b85450;" parent="1" vertex="1">
          <mxGeometry x="140" y="520" width="80" height="80" as="geometry" />
        </mxCell>
        <mxCell id="IWE4IvIM3m5MT6L9Yo8g-8" value="&lt;font color=&quot;#000000&quot;&gt;&lt;b&gt;weather data&lt;/b&gt;&lt;/font&gt;" style="rounded=0;whiteSpace=wrap;html=1;labelBackgroundColor=none;fontFamily=Verdana;fontSize=14;fillColor=#dae8fc;strokeColor=#6c8ebf;" parent="1" vertex="1">
          <mxGeometry x="320" y="520" width="120" height="80" as="geometry" />
        </mxCell>
        <mxCell id="f_Eok9SNf_XsYcOHeP-y-2" style="edgeStyle=orthogonalEdgeStyle;rounded=0;orthogonalLoop=1;jettySize=auto;html=1;exitX=0.5;exitY=1;exitDx=0;exitDy=0;fontFamily=Verdana;fontSize=14;" parent="1" source="IWE4IvIM3m5MT6L9Yo8g-2" target="IWE4IvIM3m5MT6L9Yo8g-2" edge="1">
          <mxGeometry relative="1" as="geometry" />
        </mxCell>
        <mxCell id="f_Eok9SNf_XsYcOHeP-y-4" style="edgeStyle=orthogonalEdgeStyle;rounded=0;orthogonalLoop=1;jettySize=auto;html=1;exitX=0.5;exitY=1;exitDx=0;exitDy=0;fontFamily=Verdana;fontSize=14;" parent="1" source="IWE4IvIM3m5MT6L9Yo8g-2" target="IWE4IvIM3m5MT6L9Yo8g-2" edge="1">
          <mxGeometry relative="1" as="geometry" />
        </mxCell>
        <mxCell id="f_Eok9SNf_XsYcOHeP-y-6" value="" style="endArrow=none;html=1;rounded=0;fontFamily=Verdana;fontSize=14;entryX=0.5;entryY=0;entryDx=0;entryDy=0;exitX=0.5;exitY=1;exitDx=0;exitDy=0;strokeWidth=2;" parent="1" source="IWE4IvIM3m5MT6L9Yo8g-6" target="IWE4IvIM3m5MT6L9Yo8g-3" edge="1">
          <mxGeometry width="50" height="50" relative="1" as="geometry">
            <mxPoint x="480" y="410" as="sourcePoint" />
            <mxPoint x="530" y="360" as="targetPoint" />
          </mxGeometry>
        </mxCell>
        <mxCell id="f_Eok9SNf_XsYcOHeP-y-8" value="" style="shape=link;html=1;rounded=0;fontFamily=Verdana;fontSize=14;entryX=0.5;entryY=1;entryDx=0;entryDy=0;exitX=0.5;exitY=0;exitDx=0;exitDy=0;strokeWidth=2;" parent="1" source="IWE4IvIM3m5MT6L9Yo8g-6" target="IWE4IvIM3m5MT6L9Yo8g-2" edge="1">
          <mxGeometry width="100" relative="1" as="geometry">
            <mxPoint x="240" y="250" as="sourcePoint" />
            <mxPoint x="340" y="250" as="targetPoint" />
          </mxGeometry>
        </mxCell>
        <mxCell id="f_Eok9SNf_XsYcOHeP-y-9" value="" style="endArrow=none;html=1;rounded=0;strokeWidth=2;fontFamily=Verdana;fontSize=14;entryX=1;entryY=0.5;entryDx=0;entryDy=0;exitX=0;exitY=0.5;exitDx=0;exitDy=0;" parent="1" source="IWE4IvIM3m5MT6L9Yo8g-4" target="IWE4IvIM3m5MT6L9Yo8g-2" edge="1">
          <mxGeometry width="50" height="50" relative="1" as="geometry">
            <mxPoint x="480" y="410" as="sourcePoint" />
            <mxPoint x="530" y="360" as="targetPoint" />
          </mxGeometry>
        </mxCell>
        <mxCell id="f_Eok9SNf_XsYcOHeP-y-10" value="" style="shape=link;html=1;rounded=0;strokeWidth=2;fontFamily=Verdana;fontSize=14;exitX=1;exitY=0.5;exitDx=0;exitDy=0;entryX=0;entryY=0.5;entryDx=0;entryDy=0;" parent="1" source="IWE4IvIM3m5MT6L9Yo8g-4" target="IWE4IvIM3m5MT6L9Yo8g-1" edge="1">
          <mxGeometry width="100" relative="1" as="geometry">
            <mxPoint x="450" y="160" as="sourcePoint" />
            <mxPoint x="550" y="160" as="targetPoint" />
          </mxGeometry>
        </mxCell>
        <mxCell id="f_Eok9SNf_XsYcOHeP-y-11" value="" style="shape=link;html=1;rounded=0;strokeWidth=2;fontFamily=Verdana;fontSize=14;entryX=0;entryY=0.5;entryDx=0;entryDy=0;" parent="1" target="IWE4IvIM3m5MT6L9Yo8g-8" edge="1">
          <mxGeometry width="100" relative="1" as="geometry">
            <mxPoint x="230" y="560" as="sourcePoint" />
            <mxPoint x="300" y="560" as="targetPoint" />
          </mxGeometry>
        </mxCell>
        <mxCell id="f_Eok9SNf_XsYcOHeP-y-13" value="" style="endArrow=none;html=1;rounded=0;strokeWidth=1;fontFamily=Verdana;fontSize=12;entryX=0.5;entryY=1;entryDx=0;entryDy=0;" parent="1" target="IWE4IvIM3m5MT6L9Yo8g-3" edge="1">
          <mxGeometry width="50" height="50" relative="1" as="geometry">
            <mxPoint x="180" y="520" as="sourcePoint" />
            <mxPoint x="200" y="480" as="targetPoint" />
          </mxGeometry>
        </mxCell>
        <mxCell id="f_Eok9SNf_XsYcOHeP-y-14" value="ID" style="ellipse;whiteSpace=wrap;html=1;fontFamily=Verdana;fontSize=14;fontStyle=4;fillColor=#d5e8d4;strokeColor=#82b366;" parent="1" vertex="1">
          <mxGeometry x="130" y="90" width="40" height="20" as="geometry" />
        </mxCell>
        <mxCell id="f_Eok9SNf_XsYcOHeP-y-16" value="" style="endArrow=none;html=1;rounded=0;strokeWidth=2;fontFamily=Verdana;fontSize=14;entryX=0.5;entryY=1;entryDx=0;entryDy=0;exitX=0.25;exitY=0;exitDx=0;exitDy=0;" parent="1" source="IWE4IvIM3m5MT6L9Yo8g-2" target="f_Eok9SNf_XsYcOHeP-y-14" edge="1">
          <mxGeometry width="50" height="50" relative="1" as="geometry">
            <mxPoint x="20" y="140" as="sourcePoint" />
            <mxPoint x="70" y="90" as="targetPoint" />
          </mxGeometry>
        </mxCell>
        <mxCell id="f_Eok9SNf_XsYcOHeP-y-17" value="ID" style="ellipse;whiteSpace=wrap;html=1;fontFamily=Verdana;fontSize=14;fontStyle=4;fillColor=#d5e8d4;strokeColor=#82b366;" parent="1" vertex="1">
          <mxGeometry x="690" y="150" width="40" height="20" as="geometry" />
        </mxCell>
        <mxCell id="f_Eok9SNf_XsYcOHeP-y-18" value="ws_id" style="ellipse;whiteSpace=wrap;html=1;fontFamily=Verdana;fontSize=14;fontStyle=4;fillColor=#d5e8d4;strokeColor=#82b366;" parent="1" vertex="1">
          <mxGeometry x="70" y="430" width="40" height="20" as="geometry" />
        </mxCell>
        <mxCell id="f_Eok9SNf_XsYcOHeP-y-19" value="&lt;font style=&quot;font-size: 12px;&quot;&gt;wd_id&lt;/font&gt;" style="ellipse;whiteSpace=wrap;html=1;fontFamily=Verdana;fontSize=14;fontStyle=4;fillColor=#d5e8d4;strokeColor=#82b366;" parent="1" vertex="1">
          <mxGeometry x="450" y="550" width="40" height="20" as="geometry" />
        </mxCell>
        <mxCell id="f_Eok9SNf_XsYcOHeP-y-20" value="" style="endArrow=none;html=1;rounded=0;strokeWidth=2;fontFamily=Verdana;fontSize=14;entryX=0;entryY=0.5;entryDx=0;entryDy=0;exitX=1;exitY=0.5;exitDx=0;exitDy=0;" parent="1" source="IWE4IvIM3m5MT6L9Yo8g-1" target="f_Eok9SNf_XsYcOHeP-y-17" edge="1">
          <mxGeometry width="50" height="50" relative="1" as="geometry">
            <mxPoint x="670" y="260" as="sourcePoint" />
            <mxPoint x="720" y="210" as="targetPoint" />
          </mxGeometry>
        </mxCell>
        <mxCell id="f_Eok9SNf_XsYcOHeP-y-21" value="" style="endArrow=none;html=1;rounded=0;strokeWidth=2;fontFamily=Verdana;fontSize=14;entryX=1;entryY=0.5;entryDx=0;entryDy=0;exitX=0;exitY=0.5;exitDx=0;exitDy=0;" parent="1" source="IWE4IvIM3m5MT6L9Yo8g-3" target="f_Eok9SNf_XsYcOHeP-y-18" edge="1">
          <mxGeometry width="50" height="50" relative="1" as="geometry">
            <mxPoint x="40" y="530" as="sourcePoint" />
            <mxPoint x="90" y="480" as="targetPoint" />
          </mxGeometry>
        </mxCell>
        <mxCell id="f_Eok9SNf_XsYcOHeP-y-22" value="" style="endArrow=none;html=1;rounded=0;strokeWidth=2;fontFamily=Verdana;fontSize=14;exitX=0;exitY=0.5;exitDx=0;exitDy=0;entryX=1;entryY=0.5;entryDx=0;entryDy=0;" parent="1" source="f_Eok9SNf_XsYcOHeP-y-19" target="IWE4IvIM3m5MT6L9Yo8g-8" edge="1">
          <mxGeometry width="50" height="50" relative="1" as="geometry">
            <mxPoint x="490" y="540" as="sourcePoint" />
            <mxPoint x="540" y="490" as="targetPoint" />
          </mxGeometry>
        </mxCell>
        <mxCell id="f_Eok9SNf_XsYcOHeP-y-23" value="&lt;font size=&quot;1&quot;&gt;time_zero&lt;/font&gt;" style="ellipse;whiteSpace=wrap;html=1;fontFamily=Verdana;fontSize=14;fontStyle=0;fillColor=#d5e8d4;strokeColor=#82b366;" parent="1" vertex="1">
          <mxGeometry x="530" y="90" width="40" height="20" as="geometry" />
        </mxCell>
        <mxCell id="f_Eok9SNf_XsYcOHeP-y-24" value="&lt;font size=&quot;1&quot;&gt;date_zero&lt;/font&gt;" style="ellipse;whiteSpace=wrap;html=1;fontFamily=Verdana;fontSize=14;fontStyle=0;fillColor=#d5e8d4;strokeColor=#82b366;" parent="1" vertex="1">
          <mxGeometry x="570" y="60" width="40" height="20" as="geometry" />
        </mxCell>
        <mxCell id="f_Eok9SNf_XsYcOHeP-y-25" value="&lt;font size=&quot;1&quot;&gt;time_watering&lt;br&gt;&lt;/font&gt;" style="ellipse;whiteSpace=wrap;html=1;fontFamily=Verdana;fontSize=14;fontStyle=0;fillColor=#d5e8d4;strokeColor=#82b366;" parent="1" vertex="1">
          <mxGeometry x="610" y="90" width="40" height="20" as="geometry" />
        </mxCell>
        <mxCell id="f_Eok9SNf_XsYcOHeP-y-78" value="&lt;font size=&quot;1&quot;&gt;date_watering&lt;br&gt;&lt;/font&gt;" style="ellipse;whiteSpace=wrap;html=1;fontFamily=Verdana;fontSize=14;fontStyle=0;fillColor=#d5e8d4;strokeColor=#82b366;" parent="1" vertex="1">
          <mxGeometry x="650" y="60" width="40" height="20" as="geometry" />
        </mxCell>
        <mxCell id="f_Eok9SNf_XsYcOHeP-y-79" value="&lt;font size=&quot;1&quot;&gt;burned&lt;br&gt;&lt;/font&gt;" style="ellipse;whiteSpace=wrap;html=1;fontFamily=Verdana;fontSize=14;fontStyle=0;fillColor=#d5e8d4;strokeColor=#82b366;" parent="1" vertex="1">
          <mxGeometry x="680" y="90" width="40" height="20" as="geometry" />
        </mxCell>
        <mxCell id="f_Eok9SNf_XsYcOHeP-y-80" value="&lt;font size=&quot;1&quot;&gt;personel&lt;br&gt;&lt;/font&gt;" style="ellipse;whiteSpace=wrap;html=1;fontFamily=Verdana;fontSize=14;fontStyle=0;fillColor=#d5e8d4;strokeColor=#82b366;" parent="1" vertex="1">
          <mxGeometry x="580" y="240" width="40" height="20" as="geometry" />
        </mxCell>
        <mxCell id="f_Eok9SNf_XsYcOHeP-y-81" value="&lt;font size=&quot;1&quot;&gt;vehicles&lt;br&gt;&lt;/font&gt;" style="ellipse;whiteSpace=wrap;html=1;fontFamily=Verdana;fontSize=14;fontStyle=0;fillColor=#d5e8d4;strokeColor=#82b366;" parent="1" vertex="1">
          <mxGeometry x="610" y="210" width="40" height="20" as="geometry" />
        </mxCell>
        <mxCell id="f_Eok9SNf_XsYcOHeP-y-82" value="&lt;font size=&quot;1&quot;&gt;airborne&lt;br&gt;&lt;/font&gt;" style="ellipse;whiteSpace=wrap;html=1;fontFamily=Verdana;fontSize=14;fontStyle=0;fillColor=#d5e8d4;strokeColor=#82b366;" parent="1" vertex="1">
          <mxGeometry x="640" y="240" width="40" height="20" as="geometry" />
        </mxCell>
        <mxCell id="f_Eok9SNf_XsYcOHeP-y-85" value="&lt;font size=&quot;1&quot;&gt;region&lt;/font&gt;" style="ellipse;whiteSpace=wrap;html=1;fontFamily=Verdana;fontSize=14;fontStyle=0;fillColor=#d5e8d4;strokeColor=#82b366;" parent="1" vertex="1">
          <mxGeometry x="50" y="210" width="40" height="20" as="geometry" />
        </mxCell>
        <mxCell id="f_Eok9SNf_XsYcOHeP-y-86" value="&lt;font size=&quot;1&quot;&gt;prefecture&lt;br&gt;&lt;/font&gt;" style="ellipse;whiteSpace=wrap;html=1;fontFamily=Verdana;fontSize=14;fontStyle=0;fillColor=#d5e8d4;strokeColor=#82b366;" parent="1" vertex="1">
          <mxGeometry x="50" y="90" width="40" height="20" as="geometry" />
        </mxCell>
        <mxCell id="f_Eok9SNf_XsYcOHeP-y-87" value="&lt;font size=&quot;1&quot;&gt;longitude&lt;br&gt;&lt;/font&gt;" style="ellipse;whiteSpace=wrap;html=1;fontFamily=Verdana;fontSize=14;fontStyle=0;fillColor=#d5e8d4;strokeColor=#82b366;" parent="1" vertex="1">
          <mxGeometry x="50" y="150" width="40" height="20" as="geometry" />
        </mxCell>
        <mxCell id="f_Eok9SNf_XsYcOHeP-y-88" value="&lt;font size=&quot;1&quot;&gt;muni_name&lt;br&gt;&lt;/font&gt;" style="ellipse;whiteSpace=wrap;html=1;fontFamily=Verdana;fontSize=14;fontStyle=0;fillColor=#d5e8d4;strokeColor=#82b366;" parent="1" vertex="1">
          <mxGeometry x="50" y="120" width="40" height="20" as="geometry" />
        </mxCell>
        <mxCell id="f_Eok9SNf_XsYcOHeP-y-89" value="&lt;font size=&quot;1&quot;&gt;latitude&lt;br&gt;&lt;/font&gt;" style="ellipse;whiteSpace=wrap;html=1;fontFamily=Verdana;fontSize=14;fontStyle=0;fillColor=#d5e8d4;strokeColor=#82b366;" parent="1" vertex="1">
          <mxGeometry x="50" y="180" width="40" height="20" as="geometry" />
        </mxCell>
        <mxCell id="f_Eok9SNf_XsYcOHeP-y-92" value="&lt;font size=&quot;1&quot;&gt;longitude&lt;br&gt;&lt;/font&gt;" style="ellipse;whiteSpace=wrap;html=1;fontFamily=Verdana;fontSize=14;fontStyle=0;fillColor=#d5e8d4;strokeColor=#82b366;" parent="1" vertex="1">
          <mxGeometry x="260" y="440" width="40" height="20" as="geometry" />
        </mxCell>
        <mxCell id="f_Eok9SNf_XsYcOHeP-y-93" value="&lt;font size=&quot;1&quot;&gt;altitude&lt;br&gt;&lt;/font&gt;" style="ellipse;whiteSpace=wrap;html=1;fontFamily=Verdana;fontSize=14;fontStyle=0;fillColor=#d5e8d4;strokeColor=#82b366;" parent="1" vertex="1">
          <mxGeometry x="260" y="410" width="40" height="20" as="geometry" />
        </mxCell>
        <mxCell id="f_Eok9SNf_XsYcOHeP-y-94" value="&lt;font size=&quot;1&quot;&gt;latitude&lt;br&gt;&lt;/font&gt;" style="ellipse;whiteSpace=wrap;html=1;fontFamily=Verdana;fontSize=14;fontStyle=0;fillColor=#d5e8d4;strokeColor=#82b366;" parent="1" vertex="1">
          <mxGeometry x="260" y="470" width="40" height="20" as="geometry" />
        </mxCell>
        <mxCell id="f_Eok9SNf_XsYcOHeP-y-116" value="&lt;font size=&quot;1&quot;&gt;max_temp&lt;br&gt;&lt;/font&gt;" style="ellipse;whiteSpace=wrap;html=1;fontFamily=Verdana;fontSize=14;fontStyle=0;fillColor=#d5e8d4;strokeColor=#82b366;" parent="1" vertex="1">
          <mxGeometry x="290" y="610" width="40" height="20" as="geometry" />
        </mxCell>
        <mxCell id="f_Eok9SNf_XsYcOHeP-y-118" value="&lt;font size=&quot;1&quot;&gt;avrg_temp&lt;br&gt;&lt;/font&gt;" style="ellipse;whiteSpace=wrap;html=1;fontFamily=Verdana;fontSize=14;fontStyle=0;fillColor=#d5e8d4;strokeColor=#82b366;" parent="1" vertex="1">
          <mxGeometry x="290" y="640" width="40" height="20" as="geometry" />
        </mxCell>
        <mxCell id="f_Eok9SNf_XsYcOHeP-y-119" value="&lt;font size=&quot;1&quot;&gt;min_temp&lt;br&gt;&lt;/font&gt;" style="ellipse;whiteSpace=wrap;html=1;fontFamily=Verdana;fontSize=14;fontStyle=0;fillColor=#d5e8d4;strokeColor=#82b366;" parent="1" vertex="1">
          <mxGeometry x="290" y="670" width="40" height="20" as="geometry" />
        </mxCell>
        <mxCell id="f_Eok9SNf_XsYcOHeP-y-120" value="&lt;font size=&quot;1&quot;&gt;max_hum&lt;br&gt;&lt;/font&gt;" style="ellipse;whiteSpace=wrap;html=1;fontFamily=Verdana;fontSize=14;fontStyle=0;fillColor=#d5e8d4;strokeColor=#82b366;" parent="1" vertex="1">
          <mxGeometry x="350" y="610" width="40" height="20" as="geometry" />
        </mxCell>
        <mxCell id="f_Eok9SNf_XsYcOHeP-y-121" value="&lt;font size=&quot;1&quot;&gt;avrg_hum&lt;br&gt;&lt;/font&gt;" style="ellipse;whiteSpace=wrap;html=1;fontFamily=Verdana;fontSize=14;fontStyle=0;fillColor=#d5e8d4;strokeColor=#82b366;" parent="1" vertex="1">
          <mxGeometry x="351" y="640" width="40" height="20" as="geometry" />
        </mxCell>
        <mxCell id="f_Eok9SNf_XsYcOHeP-y-122" value="&lt;font size=&quot;1&quot;&gt;min_hum&lt;br&gt;&lt;/font&gt;" style="ellipse;whiteSpace=wrap;html=1;fontFamily=Verdana;fontSize=14;fontStyle=0;fillColor=#d5e8d4;strokeColor=#82b366;" parent="1" vertex="1">
          <mxGeometry x="351" y="670" width="40" height="20" as="geometry" />
        </mxCell>
        <mxCell id="f_Eok9SNf_XsYcOHeP-y-123" value="&lt;font size=&quot;1&quot;&gt;max_atm_pres&lt;br&gt;&lt;/font&gt;" style="ellipse;whiteSpace=wrap;html=1;fontFamily=Verdana;fontSize=14;fontStyle=0;fillColor=#d5e8d4;strokeColor=#82b366;" parent="1" vertex="1">
          <mxGeometry x="420" y="610" width="40" height="20" as="geometry" />
        </mxCell>
        <mxCell id="f_Eok9SNf_XsYcOHeP-y-124" value="&lt;font size=&quot;1&quot;&gt;avrg_atm_pres&lt;br&gt;&lt;/font&gt;" style="ellipse;whiteSpace=wrap;html=1;fontFamily=Verdana;fontSize=14;fontStyle=0;fillColor=#d5e8d4;strokeColor=#82b366;" parent="1" vertex="1">
          <mxGeometry x="420" y="640" width="40" height="20" as="geometry" />
        </mxCell>
        <mxCell id="f_Eok9SNf_XsYcOHeP-y-125" value="&lt;font size=&quot;1&quot;&gt;min_atm_pres&lt;br&gt;&lt;/font&gt;" style="ellipse;whiteSpace=wrap;html=1;fontFamily=Verdana;fontSize=14;fontStyle=0;fillColor=#d5e8d4;strokeColor=#82b366;" parent="1" vertex="1">
          <mxGeometry x="420" y="670" width="40" height="20" as="geometry" />
        </mxCell>
        <mxCell id="f_Eok9SNf_XsYcOHeP-y-126" value="&lt;font size=&quot;1&quot;&gt;wind_spd&lt;br&gt;&lt;/font&gt;" style="ellipse;whiteSpace=wrap;html=1;fontFamily=Verdana;fontSize=14;fontStyle=0;fillColor=#d5e8d4;strokeColor=#82b366;" parent="1" vertex="1">
          <mxGeometry x="490" y="610" width="40" height="20" as="geometry" />
        </mxCell>
        <mxCell id="f_Eok9SNf_XsYcOHeP-y-127" value="&lt;font size=&quot;1&quot;&gt;wind_dir&lt;br&gt;&lt;/font&gt;" style="ellipse;whiteSpace=wrap;html=1;fontFamily=Verdana;fontSize=14;fontStyle=0;fillColor=#d5e8d4;strokeColor=#82b366;" parent="1" vertex="1">
          <mxGeometry x="490" y="640" width="40" height="20" as="geometry" />
        </mxCell>
        <mxCell id="f_Eok9SNf_XsYcOHeP-y-128" value="&lt;font size=&quot;1&quot;&gt;wind_gust&lt;br&gt;&lt;/font&gt;" style="ellipse;whiteSpace=wrap;html=1;fontFamily=Verdana;fontSize=14;fontStyle=0;fillColor=#d5e8d4;strokeColor=#82b366;" parent="1" vertex="1">
          <mxGeometry x="490" y="670" width="40" height="20" as="geometry" />
        </mxCell>
        <mxCell id="f_Eok9SNf_XsYcOHeP-y-129" value="&lt;font style=&quot;font-size: 12px;&quot;&gt;rain&lt;font style=&quot;font-size: 12px;&quot;&gt;fall&lt;/font&gt;&lt;/font&gt;" style="ellipse;whiteSpace=wrap;html=1;fontFamily=Verdana;fontSize=14;fontStyle=0;fillColor=#d5e8d4;strokeColor=#82b366;" parent="1" vertex="1">
          <mxGeometry x="360" y="490" width="40" height="20" as="geometry" />
        </mxCell>
        <mxCell id="f_Eok9SNf_XsYcOHeP-y-130" value="&lt;font size=&quot;1&quot;&gt;date&lt;br&gt;&lt;/font&gt;" style="ellipse;whiteSpace=wrap;html=1;fontFamily=Verdana;fontSize=14;fontStyle=0;fillColor=#d5e8d4;strokeColor=#82b366;" parent="1" vertex="1">
          <mxGeometry x="410" y="490" width="40" height="20" as="geometry" />
        </mxCell>
        <mxCell id="f_Eok9SNf_XsYcOHeP-y-131" value="&lt;font size=&quot;1&quot;&gt;fire_force&lt;br&gt;&lt;/font&gt;" style="ellipse;whiteSpace=wrap;html=1;fontFamily=Verdana;fontSize=14;fontStyle=0;fillColor=#d5e8d4;strokeColor=#82b366;" parent="1" vertex="1">
          <mxGeometry x="550" y="210" width="40" height="20" as="geometry" />
        </mxCell>
        <mxCell id="O7Wk5swd6t4d14lx1I56-5" value="" style="endArrow=none;html=1;rounded=0;entryX=0;entryY=1;entryDx=0;entryDy=0;" parent="1" target="IWE4IvIM3m5MT6L9Yo8g-1" edge="1">
          <mxGeometry width="50" height="50" relative="1" as="geometry">
            <mxPoint x="560" y="210" as="sourcePoint" />
            <mxPoint x="610" y="170" as="targetPoint" />
          </mxGeometry>
        </mxCell>
        <mxCell id="O7Wk5swd6t4d14lx1I56-6" value="" style="endArrow=none;html=1;rounded=0;entryX=0.5;entryY=0;entryDx=0;entryDy=0;exitX=0.335;exitY=1.016;exitDx=0;exitDy=0;exitPerimeter=0;" parent="1" source="IWE4IvIM3m5MT6L9Yo8g-1" target="f_Eok9SNf_XsYcOHeP-y-80" edge="1">
          <mxGeometry width="50" height="50" relative="1" as="geometry">
            <mxPoint x="490" y="260" as="sourcePoint" />
            <mxPoint x="540" y="210" as="targetPoint" />
          </mxGeometry>
        </mxCell>
        <mxCell id="O7Wk5swd6t4d14lx1I56-7" value="" style="endArrow=none;html=1;rounded=0;exitX=0.5;exitY=0;exitDx=0;exitDy=0;entryX=0.833;entryY=1;entryDx=0;entryDy=0;entryPerimeter=0;" parent="1" source="f_Eok9SNf_XsYcOHeP-y-82" target="IWE4IvIM3m5MT6L9Yo8g-1" edge="1">
          <mxGeometry width="50" height="50" relative="1" as="geometry">
            <mxPoint x="670" y="270" as="sourcePoint" />
            <mxPoint x="720" y="220" as="targetPoint" />
          </mxGeometry>
        </mxCell>
        <mxCell id="O7Wk5swd6t4d14lx1I56-8" value="" style="endArrow=none;html=1;rounded=0;entryX=0.5;entryY=0;entryDx=0;entryDy=0;exitX=0.583;exitY=1;exitDx=0;exitDy=0;exitPerimeter=0;" parent="1" source="IWE4IvIM3m5MT6L9Yo8g-1" target="f_Eok9SNf_XsYcOHeP-y-81" edge="1">
          <mxGeometry width="50" height="50" relative="1" as="geometry">
            <mxPoint x="490" y="270" as="sourcePoint" />
            <mxPoint x="540" y="220" as="targetPoint" />
          </mxGeometry>
        </mxCell>
        <mxCell id="O7Wk5swd6t4d14lx1I56-9" value="" style="endArrow=none;html=1;rounded=0;entryX=0.5;entryY=1;entryDx=0;entryDy=0;exitX=0.25;exitY=-0.023;exitDx=0;exitDy=0;exitPerimeter=0;" parent="1" source="IWE4IvIM3m5MT6L9Yo8g-1" target="f_Eok9SNf_XsYcOHeP-y-24" edge="1">
          <mxGeometry width="50" height="50" relative="1" as="geometry">
            <mxPoint x="480" y="100" as="sourcePoint" />
            <mxPoint x="530" y="50" as="targetPoint" />
          </mxGeometry>
        </mxCell>
        <mxCell id="O7Wk5swd6t4d14lx1I56-10" value="" style="endArrow=none;html=1;rounded=0;entryX=0.5;entryY=1;entryDx=0;entryDy=0;" parent="1" target="f_Eok9SNf_XsYcOHeP-y-25" edge="1">
          <mxGeometry width="50" height="50" relative="1" as="geometry">
            <mxPoint x="630" y="120" as="sourcePoint" />
            <mxPoint x="660" y="40" as="targetPoint" />
          </mxGeometry>
        </mxCell>
        <mxCell id="O7Wk5swd6t4d14lx1I56-11" value="" style="endArrow=none;html=1;rounded=0;entryX=0.5;entryY=1;entryDx=0;entryDy=0;exitX=0;exitY=0;exitDx=0;exitDy=0;" parent="1" source="IWE4IvIM3m5MT6L9Yo8g-1" target="f_Eok9SNf_XsYcOHeP-y-23" edge="1">
          <mxGeometry width="50" height="50" relative="1" as="geometry">
            <mxPoint x="500" y="150" as="sourcePoint" />
            <mxPoint x="550" y="100" as="targetPoint" />
          </mxGeometry>
        </mxCell>
        <mxCell id="O7Wk5swd6t4d14lx1I56-12" value="" style="endArrow=none;html=1;rounded=0;entryX=0.523;entryY=1.063;entryDx=0;entryDy=0;entryPerimeter=0;exitX=1;exitY=0;exitDx=0;exitDy=0;" parent="1" source="IWE4IvIM3m5MT6L9Yo8g-1" target="f_Eok9SNf_XsYcOHeP-y-79" edge="1">
          <mxGeometry width="50" height="50" relative="1" as="geometry">
            <mxPoint x="470" y="140" as="sourcePoint" />
            <mxPoint x="520" y="90" as="targetPoint" />
          </mxGeometry>
        </mxCell>
        <mxCell id="O7Wk5swd6t4d14lx1I56-13" value="" style="endArrow=none;html=1;rounded=0;entryX=0.5;entryY=1;entryDx=0;entryDy=0;exitX=0.915;exitY=0.006;exitDx=0;exitDy=0;exitPerimeter=0;" parent="1" source="IWE4IvIM3m5MT6L9Yo8g-1" target="f_Eok9SNf_XsYcOHeP-y-78" edge="1">
          <mxGeometry width="50" height="50" relative="1" as="geometry">
            <mxPoint x="480" y="130" as="sourcePoint" />
            <mxPoint x="530" y="80" as="targetPoint" />
          </mxGeometry>
        </mxCell>
        <mxCell id="O7Wk5swd6t4d14lx1I56-14" value="" style="endArrow=none;html=1;rounded=0;exitX=1;exitY=0.5;exitDx=0;exitDy=0;entryX=-0.001;entryY=0.874;entryDx=0;entryDy=0;entryPerimeter=0;" parent="1" source="f_Eok9SNf_XsYcOHeP-y-89" target="IWE4IvIM3m5MT6L9Yo8g-2" edge="1">
          <mxGeometry width="50" height="50" relative="1" as="geometry">
            <mxPoint x="90" y="180" as="sourcePoint" />
            <mxPoint x="140" y="130" as="targetPoint" />
          </mxGeometry>
        </mxCell>
        <mxCell id="O7Wk5swd6t4d14lx1I56-15" value="" style="endArrow=none;html=1;rounded=0;entryX=0;entryY=0.5;entryDx=0;entryDy=0;exitX=1;exitY=0.5;exitDx=0;exitDy=0;" parent="1" source="f_Eok9SNf_XsYcOHeP-y-87" target="IWE4IvIM3m5MT6L9Yo8g-2" edge="1">
          <mxGeometry width="50" height="50" relative="1" as="geometry">
            <mxPoint x="90" y="210" as="sourcePoint" />
            <mxPoint x="140" y="160" as="targetPoint" />
          </mxGeometry>
        </mxCell>
        <mxCell id="O7Wk5swd6t4d14lx1I56-16" value="" style="endArrow=none;html=1;rounded=0;entryX=1;entryY=0.5;entryDx=0;entryDy=0;exitX=0;exitY=0.125;exitDx=0;exitDy=0;exitPerimeter=0;" parent="1" source="IWE4IvIM3m5MT6L9Yo8g-2" target="f_Eok9SNf_XsYcOHeP-y-88" edge="1">
          <mxGeometry width="50" height="50" relative="1" as="geometry">
            <mxPoint y="190" as="sourcePoint" />
            <mxPoint x="50" y="140" as="targetPoint" />
          </mxGeometry>
        </mxCell>
        <mxCell id="O7Wk5swd6t4d14lx1I56-17" value="" style="endArrow=none;html=1;rounded=0;entryX=1;entryY=0.5;entryDx=0;entryDy=0;exitX=0;exitY=0;exitDx=0;exitDy=0;" parent="1" source="IWE4IvIM3m5MT6L9Yo8g-2" target="f_Eok9SNf_XsYcOHeP-y-86" edge="1">
          <mxGeometry width="50" height="50" relative="1" as="geometry">
            <mxPoint x="90" y="180" as="sourcePoint" />
            <mxPoint x="140" y="130" as="targetPoint" />
          </mxGeometry>
        </mxCell>
        <mxCell id="O7Wk5swd6t4d14lx1I56-18" value="" style="endArrow=none;html=1;rounded=0;exitX=1;exitY=0.5;exitDx=0;exitDy=0;entryX=0;entryY=1;entryDx=0;entryDy=0;" parent="1" source="f_Eok9SNf_XsYcOHeP-y-85" target="IWE4IvIM3m5MT6L9Yo8g-2" edge="1">
          <mxGeometry width="50" height="50" relative="1" as="geometry">
            <mxPoint x="100" y="190" as="sourcePoint" />
            <mxPoint x="150" y="140" as="targetPoint" />
          </mxGeometry>
        </mxCell>
        <mxCell id="O7Wk5swd6t4d14lx1I56-20" value="" style="endArrow=none;html=1;rounded=0;entryX=0;entryY=0.5;entryDx=0;entryDy=0;exitX=1;exitY=1;exitDx=0;exitDy=0;" parent="1" source="IWE4IvIM3m5MT6L9Yo8g-3" target="f_Eok9SNf_XsYcOHeP-y-94" edge="1">
          <mxGeometry width="50" height="50" relative="1" as="geometry">
            <mxPoint x="40" y="530" as="sourcePoint" />
            <mxPoint x="90" y="480" as="targetPoint" />
          </mxGeometry>
        </mxCell>
        <mxCell id="O7Wk5swd6t4d14lx1I56-21" value="" style="endArrow=none;html=1;rounded=0;entryX=-0.037;entryY=0.484;entryDx=0;entryDy=0;entryPerimeter=0;exitX=1.009;exitY=0.621;exitDx=0;exitDy=0;exitPerimeter=0;" parent="1" source="IWE4IvIM3m5MT6L9Yo8g-3" target="f_Eok9SNf_XsYcOHeP-y-92" edge="1">
          <mxGeometry width="50" height="50" relative="1" as="geometry">
            <mxPoint x="210" y="540" as="sourcePoint" />
            <mxPoint x="260" y="490" as="targetPoint" />
          </mxGeometry>
        </mxCell>
        <mxCell id="O7Wk5swd6t4d14lx1I56-22" value="" style="endArrow=none;html=1;rounded=0;entryX=0;entryY=0.5;entryDx=0;entryDy=0;exitX=1;exitY=0.25;exitDx=0;exitDy=0;" parent="1" source="IWE4IvIM3m5MT6L9Yo8g-3" target="f_Eok9SNf_XsYcOHeP-y-93" edge="1">
          <mxGeometry width="50" height="50" relative="1" as="geometry">
            <mxPoint x="220" y="550" as="sourcePoint" />
            <mxPoint x="270" y="500" as="targetPoint" />
          </mxGeometry>
        </mxCell>
        <mxCell id="O7Wk5swd6t4d14lx1I56-23" value="" style="endArrow=none;html=1;rounded=0;entryX=0;entryY=0.5;entryDx=0;entryDy=0;exitX=1;exitY=0;exitDx=0;exitDy=0;" parent="1" source="IWE4IvIM3m5MT6L9Yo8g-3" edge="1">
          <mxGeometry width="50" height="50" relative="1" as="geometry">
            <mxPoint x="190" y="415" as="sourcePoint" />
            <mxPoint x="260" y="390" as="targetPoint" />
          </mxGeometry>
        </mxCell>
        <mxCell id="O7Wk5swd6t4d14lx1I56-24" value="" style="endArrow=none;html=1;rounded=0;entryX=0.5;entryY=1;entryDx=0;entryDy=0;exitX=0.915;exitY=0.01;exitDx=0;exitDy=0;exitPerimeter=0;" parent="1" source="IWE4IvIM3m5MT6L9Yo8g-8" target="f_Eok9SNf_XsYcOHeP-y-130" edge="1">
          <mxGeometry width="50" height="50" relative="1" as="geometry">
            <mxPoint x="460" y="580" as="sourcePoint" />
            <mxPoint x="510" y="530" as="targetPoint" />
          </mxGeometry>
        </mxCell>
        <mxCell id="O7Wk5swd6t4d14lx1I56-25" value="" style="endArrow=none;html=1;rounded=0;entryX=0.5;entryY=1;entryDx=0;entryDy=0;exitX=0.5;exitY=0;exitDx=0;exitDy=0;" parent="1" source="IWE4IvIM3m5MT6L9Yo8g-8" target="f_Eok9SNf_XsYcOHeP-y-129" edge="1">
          <mxGeometry width="50" height="50" relative="1" as="geometry">
            <mxPoint x="240" y="570" as="sourcePoint" />
            <mxPoint x="290" y="520" as="targetPoint" />
          </mxGeometry>
        </mxCell>
        <mxCell id="O7Wk5swd6t4d14lx1I56-26" value="" style="endArrow=none;html=1;rounded=0;entryX=0;entryY=1;entryDx=0;entryDy=0;exitX=0.5;exitY=0;exitDx=0;exitDy=0;" parent="1" source="f_Eok9SNf_XsYcOHeP-y-116" target="IWE4IvIM3m5MT6L9Yo8g-8" edge="1">
          <mxGeometry width="50" height="50" relative="1" as="geometry">
            <mxPoint x="250" y="640" as="sourcePoint" />
            <mxPoint x="300" y="590" as="targetPoint" />
          </mxGeometry>
        </mxCell>
        <mxCell id="O7Wk5swd6t4d14lx1I56-27" value="" style="endArrow=none;html=1;rounded=0;entryX=0.418;entryY=1.025;entryDx=0;entryDy=0;entryPerimeter=0;exitX=0.5;exitY=0;exitDx=0;exitDy=0;" parent="1" source="f_Eok9SNf_XsYcOHeP-y-120" target="IWE4IvIM3m5MT6L9Yo8g-8" edge="1">
          <mxGeometry width="50" height="50" relative="1" as="geometry">
            <mxPoint x="350" y="650" as="sourcePoint" />
            <mxPoint x="400" y="600" as="targetPoint" />
          </mxGeometry>
        </mxCell>
        <mxCell id="O7Wk5swd6t4d14lx1I56-28" value="" style="endArrow=none;html=1;rounded=0;entryX=0.917;entryY=1;entryDx=0;entryDy=0;entryPerimeter=0;" parent="1" target="IWE4IvIM3m5MT6L9Yo8g-8" edge="1">
          <mxGeometry width="50" height="50" relative="1" as="geometry">
            <mxPoint x="430" y="610" as="sourcePoint" />
            <mxPoint x="470" y="600" as="targetPoint" />
          </mxGeometry>
        </mxCell>
        <mxCell id="O7Wk5swd6t4d14lx1I56-29" value="" style="endArrow=none;html=1;rounded=0;entryX=1;entryY=1;entryDx=0;entryDy=0;exitX=0;exitY=0;exitDx=0;exitDy=0;" parent="1" source="f_Eok9SNf_XsYcOHeP-y-126" target="IWE4IvIM3m5MT6L9Yo8g-8" edge="1">
          <mxGeometry width="50" height="50" relative="1" as="geometry">
            <mxPoint x="530" y="620" as="sourcePoint" />
            <mxPoint x="580" y="570" as="targetPoint" />
          </mxGeometry>
        </mxCell>
        <mxCell id="O7Wk5swd6t4d14lx1I56-30" value="" style="endArrow=none;html=1;rounded=0;entryX=0.5;entryY=1;entryDx=0;entryDy=0;exitX=0.5;exitY=0;exitDx=0;exitDy=0;" parent="1" source="f_Eok9SNf_XsYcOHeP-y-118" target="f_Eok9SNf_XsYcOHeP-y-116" edge="1">
          <mxGeometry width="50" height="50" relative="1" as="geometry">
            <mxPoint x="380" y="700" as="sourcePoint" />
            <mxPoint x="430" y="650" as="targetPoint" />
          </mxGeometry>
        </mxCell>
        <mxCell id="O7Wk5swd6t4d14lx1I56-31" value="" style="endArrow=none;html=1;rounded=0;entryX=0.5;entryY=1;entryDx=0;entryDy=0;exitX=0.5;exitY=0;exitDx=0;exitDy=0;" parent="1" source="f_Eok9SNf_XsYcOHeP-y-119" target="f_Eok9SNf_XsYcOHeP-y-118" edge="1">
          <mxGeometry width="50" height="50" relative="1" as="geometry">
            <mxPoint x="300" y="710" as="sourcePoint" />
            <mxPoint x="350" y="660" as="targetPoint" />
          </mxGeometry>
        </mxCell>
        <mxCell id="O7Wk5swd6t4d14lx1I56-32" value="" style="endArrow=none;html=1;rounded=0;entryX=0.503;entryY=0.063;entryDx=0;entryDy=0;entryPerimeter=0;exitX=0.5;exitY=1;exitDx=0;exitDy=0;" parent="1" source="f_Eok9SNf_XsYcOHeP-y-121" target="f_Eok9SNf_XsYcOHeP-y-122" edge="1">
          <mxGeometry width="50" height="50" relative="1" as="geometry">
            <mxPoint x="340" y="750" as="sourcePoint" />
            <mxPoint x="390" y="700" as="targetPoint" />
          </mxGeometry>
        </mxCell>
        <mxCell id="O7Wk5swd6t4d14lx1I56-33" value="" style="endArrow=none;html=1;rounded=0;entryX=0.469;entryY=-0.023;entryDx=0;entryDy=0;exitX=0.5;exitY=1;exitDx=0;exitDy=0;entryPerimeter=0;" parent="1" source="f_Eok9SNf_XsYcOHeP-y-120" target="f_Eok9SNf_XsYcOHeP-y-121" edge="1">
          <mxGeometry width="50" height="50" relative="1" as="geometry">
            <mxPoint x="360" y="680" as="sourcePoint" />
            <mxPoint x="410" y="630" as="targetPoint" />
          </mxGeometry>
        </mxCell>
        <mxCell id="O7Wk5swd6t4d14lx1I56-34" value="" style="endArrow=none;html=1;rounded=0;entryX=0.5;entryY=1;entryDx=0;entryDy=0;exitX=0.5;exitY=0;exitDx=0;exitDy=0;" parent="1" source="f_Eok9SNf_XsYcOHeP-y-124" target="f_Eok9SNf_XsYcOHeP-y-123" edge="1">
          <mxGeometry width="50" height="50" relative="1" as="geometry">
            <mxPoint x="430" y="680" as="sourcePoint" />
            <mxPoint x="480" y="630" as="targetPoint" />
          </mxGeometry>
        </mxCell>
        <mxCell id="O7Wk5swd6t4d14lx1I56-35" value="" style="endArrow=none;html=1;rounded=0;entryX=0.5;entryY=1;entryDx=0;entryDy=0;exitX=0.5;exitY=0;exitDx=0;exitDy=0;" parent="1" source="f_Eok9SNf_XsYcOHeP-y-125" target="f_Eok9SNf_XsYcOHeP-y-124" edge="1">
          <mxGeometry width="50" height="50" relative="1" as="geometry">
            <mxPoint x="390" y="730" as="sourcePoint" />
            <mxPoint x="440" y="680" as="targetPoint" />
          </mxGeometry>
        </mxCell>
        <mxCell id="O7Wk5swd6t4d14lx1I56-36" value="" style="endArrow=none;html=1;rounded=0;entryX=0.5;entryY=1;entryDx=0;entryDy=0;exitX=0.5;exitY=0;exitDx=0;exitDy=0;" parent="1" source="f_Eok9SNf_XsYcOHeP-y-127" target="f_Eok9SNf_XsYcOHeP-y-126" edge="1">
          <mxGeometry width="50" height="50" relative="1" as="geometry">
            <mxPoint x="540" y="680" as="sourcePoint" />
            <mxPoint x="590" y="630" as="targetPoint" />
          </mxGeometry>
        </mxCell>
        <mxCell id="O7Wk5swd6t4d14lx1I56-37" value="" style="endArrow=none;html=1;rounded=0;entryX=0.5;entryY=1;entryDx=0;entryDy=0;exitX=0.5;exitY=0;exitDx=0;exitDy=0;" parent="1" source="f_Eok9SNf_XsYcOHeP-y-128" target="f_Eok9SNf_XsYcOHeP-y-127" edge="1">
          <mxGeometry width="50" height="50" relative="1" as="geometry">
            <mxPoint x="550" y="700" as="sourcePoint" />
            <mxPoint x="600" y="650" as="targetPoint" />
          </mxGeometry>
        </mxCell>
        <mxCell id="Ivje5LnjGtNQHavhgKFX-1" value="&lt;font style=&quot;font-size: 10px;&quot;&gt;ws_name&lt;/font&gt;" style="ellipse;whiteSpace=wrap;html=1;fontSize=10;fillColor=#d5e8d4;strokeColor=#82b366;" vertex="1" parent="1">
          <mxGeometry x="260" y="380" width="40" height="20" as="geometry" />
        </mxCell>
        <mxCell id="Ivje5LnjGtNQHavhgKFX-14" value="" style="endArrow=none;html=1;rounded=0;fontSize=12;entryX=0.531;entryY=1.003;entryDx=0;entryDy=0;entryPerimeter=0;exitX=0.544;exitY=0.036;exitDx=0;exitDy=0;exitPerimeter=0;" edge="1" parent="1" source="IWE4IvIM3m5MT6L9Yo8g-7" target="IWE4IvIM3m5MT6L9Yo8g-3">
          <mxGeometry width="50" height="50" relative="1" as="geometry">
            <mxPoint x="180" y="525" as="sourcePoint" />
            <mxPoint x="230" y="475" as="targetPoint" />
          </mxGeometry>
        </mxCell>
        <mxCell id="Ivje5LnjGtNQHavhgKFX-15" value="" style="endArrow=none;html=1;rounded=0;strokeWidth=1;fontSize=12;entryX=0.5;entryY=1;entryDx=0;entryDy=0;" edge="1" parent="1" target="IWE4IvIM3m5MT6L9Yo8g-3">
          <mxGeometry width="50" height="50" relative="1" as="geometry">
            <mxPoint x="190" y="490" as="sourcePoint" />
            <mxPoint x="320" y="450" as="targetPoint" />
          </mxGeometry>
        </mxCell>
        <mxCell id="Ivje5LnjGtNQHavhgKFX-16" value="" style="endArrow=none;html=1;rounded=0;strokeWidth=1;fontSize=12;" edge="1" parent="1">
          <mxGeometry width="50" height="50" relative="1" as="geometry">
            <mxPoint x="170" y="490" as="sourcePoint" />
            <mxPoint x="180" y="480" as="targetPoint" />
          </mxGeometry>
        </mxCell>
      </root>
    </mxGraphModel>
  </diagram>
</mxfile>
